<?xml version="1.0" encoding="utf-8"?>
<!-- Generator: Adobe Illustrator 16.0.0, SVG Export Plug-In . SVG Version: 6.00 Build 0)  -->
<!DOCTYPE svg PUBLIC "-//W3C//DTD SVG 1.1//EN" "http://www.w3.org/Graphics/SVG/1.1/DTD/svg11.dtd">
<svg version="1.1" id="Layer_1" focusable="false" xmlns="http://www.w3.org/2000/svg" xmlns:xlink="http://www.w3.org/1999/xlink"
	 x="0px" y="0px" width="968.75px" height="968.75px" viewBox="265.625 15.625 968.75 968.75"
	 enable-background="new 265.625 15.625 968.75 968.75" xml:space="preserve">
<path fill="#91C83E" d="M750,15.625c-267.514,0-484.375,216.861-484.375,484.375c0,267.514,216.861,484.375,484.375,484.375
	S1234.375,767.514,1234.375,500C1234.375,232.486,1017.514,15.625,750,15.625z M750,109.375
	c215.883,0,390.625,174.709,390.625,390.625c0,215.883-174.709,390.625-390.625,390.625c-215.883,0-390.625-174.709-390.625-390.625
	C359.375,284.117,534.084,109.375,750,109.375 M1023.836,363.803l-44.016-44.371c-9.115-9.188-23.955-9.25-33.146-0.133
	L670.598,593.158L553.816,475.43c-9.115-9.188-23.955-9.25-33.146-0.135l-44.373,44.016c-9.188,9.115-9.25,23.955-0.133,33.146
	l177.307,178.742c9.115,9.188,23.955,9.25,33.146,0.133l337.088-334.383C1032.893,387.832,1032.951,372.992,1023.836,363.803
	L1023.836,363.803z"/>
</svg>
