<?xml version="1.0" encoding="utf-8"?>
<!-- Generator: Adobe Illustrator 16.0.0, SVG Export Plug-In . SVG Version: 6.00 Build 0)  -->
<!DOCTYPE svg PUBLIC "-//W3C//DTD SVG 1.1//EN" "http://www.w3.org/Graphics/SVG/1.1/DTD/svg11.dtd">
<svg version="1.1" id="Layer_1" focusable="false" xmlns="http://www.w3.org/2000/svg" xmlns:xlink="http://www.w3.org/1999/xlink"
	 x="0px" y="0px" width="1000.13px" height="875px" viewBox="249.87 62.5 1000.13 875"
	 enable-background="new 249.87 62.5 1000.13 875" xml:space="preserve">
<path fill="#53C5F2" d="M750,62.5c-276.172,0-500,181.836-500,406.25c0,92.969,38.867,178.125,103.32,246.68
	c-29.102,76.953-89.648,142.188-90.625,142.97c-12.891,13.672-16.406,33.594-8.984,50.78c7.422,17.188,24.414,28.32,43.164,28.32
	c120.117,0,214.844-50.195,271.68-90.43C625,864.844,685.938,875,750,875c276.172,0,500-181.836,500-406.25S1026.172,62.5,750,62.5z
	 M750,781.25c-52.147,0-103.711-8.008-153.125-23.633l-44.336-14.063l-38.086,26.953c-27.93,19.728-66.211,41.797-112.305,56.642
	c14.258-23.634,28.125-50.195,38.867-78.517l20.703-54.883l-40.233-42.578c-35.353-37.695-77.734-100-77.734-182.422
	c0-172.266,182.227-312.5,406.25-312.5c224.022,0,406.25,140.234,406.25,312.5C1156.25,641.015,974.022,781.25,750,781.25z"/>
</svg>
