<?xml version="1.0" encoding="utf-8"?>
<!-- Generator: Adobe Illustrator 16.0.0, SVG Export Plug-In . SVG Version: 6.00 Build 0)  -->
<!DOCTYPE svg PUBLIC "-//W3C//DTD SVG 1.1//EN" "http://www.w3.org/Graphics/SVG/1.1/DTD/svg11.dtd">
<svg version="1.1" id="Layer_1" focusable="false" xmlns="http://www.w3.org/2000/svg" xmlns:xlink="http://www.w3.org/1999/xlink"
	 x="0px" y="0px" width="750px" height="1000.196px" viewBox="375 -0.098 750 1000.196"
	 enable-background="new 375 -0.098 750 1000.196" xml:space="preserve">
<path fill="#EE2F25" d="M1097.461,191.309L933.594,27.441C916.016,9.863,892.188-0.098,867.383-0.098H468.75
	C416.992,0.098,375,42.09,375,93.848v812.5c0,51.759,41.992,93.75,93.75,93.75h562.5c51.758,0,93.75-41.991,93.75-93.75V257.715
	C1125,232.91,1115.039,208.887,1097.461,191.309z M1023.633,250.098H875V101.465L1023.633,250.098z M468.75,906.348v-812.5h312.5
	v203.125c0,25.977,20.897,46.875,46.875,46.875h203.125v562.5H468.75z M957.422,625.684
	c-23.828-23.438-91.797-16.991-125.781-12.694c-33.594-20.508-56.055-48.828-71.875-90.431
	c7.617-31.444,19.728-79.297,10.548-109.375c-8.203-51.172-73.828-46.094-83.203-11.522c-8.595,31.445-0.781,75.195,13.672,131.055
	c-19.531,46.681-48.633,109.375-69.142,145.313c-39.063,20.117-91.797,51.172-99.608,90.233
	c-6.445,30.859,50.781,107.813,148.633-60.938c43.75-14.453,91.406-32.228,133.594-39.258
	c36.914,19.922,80.078,33.202,108.984,33.202C973.047,701.27,977.93,646.191,957.422,625.684z M570.508,777.637
	c9.961-26.758,47.853-57.617,59.375-68.358C592.773,768.457,570.508,779.004,570.508,777.637z M729.883,405.371
	c14.453,0,13.086,62.695,3.517,79.688C724.805,457.91,725,405.371,729.883,405.371z M682.227,672.168
	c18.945-33.008,35.156-72.266,48.242-106.836c16.211,29.492,36.914,53.125,58.789,69.336
	C748.633,643.066,713.281,660.254,682.227,672.168z M939.258,662.402c0,0-9.766,11.719-72.852-15.234
	C934.961,642.09,946.289,657.715,939.258,662.402z"/>
</svg>
