<?xml version="1.0" encoding="utf-8"?>
<!-- Generator: Adobe Illustrator 16.0.0, SVG Export Plug-In . SVG Version: 6.00 Build 0)  -->
<!DOCTYPE svg PUBLIC "-//W3C//DTD SVG 1.1//EN" "http://www.w3.org/Graphics/SVG/1.1/DTD/svg11.dtd">
<svg version="1.1" id="Layer_1" focusable="false" xmlns="http://www.w3.org/2000/svg" xmlns:xlink="http://www.w3.org/1999/xlink"
	 x="0px" y="0px" width="968.75px" height="968.75px" viewBox="265.625 15.625 968.75 968.75"
	 enable-background="new 265.625 15.625 968.75 968.75" xml:space="preserve">
<path fill="#EE3726" d="M750,15.625c-267.578,0-484.375,216.797-484.375,484.375S482.422,984.375,750,984.375
	S1234.375,767.578,1234.375,500S1017.578,15.625,750,15.625z M750,890.625c-215.82,0-390.625-174.805-390.625-390.625
	c0-215.82,174.805-390.625,390.625-390.625S1140.625,284.18,1140.625,500C1140.625,715.82,965.82,890.625,750,890.625z
	 M948.828,378.516L827.344,500l121.484,121.484c9.18,9.18,9.18,24.022,0,33.203l-44.142,44.141c-9.18,9.18-24.022,9.18-33.202,0
	L750,577.344L628.516,698.828c-9.18,9.18-24.022,9.18-33.202,0l-44.142-44.141c-9.18-9.181-9.18-24.023,0-33.203L672.656,500
	L551.172,378.516c-9.18-9.18-9.18-24.022,0-33.203l44.142-44.141c9.18-9.18,24.022-9.18,33.202,0L750,422.656l121.484-121.484
	c9.18-9.18,24.022-9.18,33.202,0l44.142,44.141C958.008,354.492,958.008,369.336,948.828,378.516L948.828,378.516z"/>
</svg>
