<?xml version="1.0" encoding="utf-8"?>
<!-- Generator: Adobe Illustrator 16.0.0, SVG Export Plug-In . SVG Version: 6.00 Build 0)  -->
<!DOCTYPE svg PUBLIC "-//W3C//DTD SVG 1.1//EN" "http://www.w3.org/Graphics/SVG/1.1/DTD/svg11.dtd">
<svg version="1.1" id="Layer_1" focusable="false" xmlns="http://www.w3.org/2000/svg" xmlns:xlink="http://www.w3.org/1999/xlink"
	 x="0px" y="0px" width="1500px" height="1000px" viewBox="0 0 1500 1000" enable-background="new 0 0 1500 1000"
	 xml:space="preserve">
<path fill="#727CF5" d="M312.5,437.5c68.945,0,125-56.055,125-125c0-68.945-56.055-125-125-125s-125,56.055-125,125
	C187.5,381.445,243.555,437.5,312.5,437.5z M1187.5,437.5c68.945,0,125-56.055,125-125c0-68.945-56.055-125-125-125
	s-125,56.055-125,125C1062.5,381.445,1118.555,437.5,1187.5,437.5z M1250,500h-125c-34.375,0-65.43,13.867-88.086,36.328
	c78.711,43.164,134.57,121.094,146.68,213.672H1312.5c34.57,0,62.5-27.93,62.5-62.5V625C1375,556.055,1318.945,500,1250,500z
	 M750,500c120.897,0,218.75-97.852,218.75-218.75C968.75,160.352,870.897,62.5,750,62.5c-120.898,0-218.75,97.852-218.75,218.75
	C531.25,402.148,629.102,500,750,500z M900,562.5h-16.211c-40.625,19.531-85.742,31.25-133.789,31.25s-92.969-11.719-133.789-31.25
	H600c-124.219,0-225,100.781-225,225v56.25c0,51.758,41.992,93.75,93.75,93.75h562.5c51.758,0,93.75-41.992,93.75-93.75V787.5
	C1125,663.281,1024.219,562.5,900,562.5z M463.086,536.328C440.43,513.867,409.375,500,375,500H250c-68.945,0-125,56.055-125,125
	v62.5c0,34.57,27.93,62.5,62.5,62.5h128.711C328.516,657.422,384.375,579.492,463.086,536.328z"/>
</svg>
