<?xml version="1.0" encoding="utf-8"?>
<!-- Generator: Adobe Illustrator 24.0.1, SVG Export Plug-In . SVG Version: 6.00 Build 0)  -->
<svg version="1.1" id="Capa_1" xmlns="http://www.w3.org/2000/svg" xmlns:xlink="http://www.w3.org/1999/xlink" x="0px" y="0px"
	 viewBox="0 0 320.8 259.7" style="enable-background:new 0 0 320.8 259.7;" xml:space="preserve">
<style type="text/css">
	.st0{fill:#EE2C24;}
</style>
<g>
	<g>
		<path class="st0" d="M180.5,9.1l-1.3-1.3c-5-5-11.7-7.8-18.8-7.8c-7.1,0-13.7,2.8-18.7,7.8l-1.3,1.3L5.6,226.3
			c-5.5,6.4-7,14.2-4.1,21.2c3.2,7.6,10.7,12.2,20.2,12.2h277.6c9.5,0,17-4.6,20.2-12.2c2.9-7,1.4-14.8-4.1-21.2L180.5,9.1z
			 M43.5,227L160.4,38.6L277.3,227H43.5z"/>
		<path class="st0" d="M143.8,91.4v71.4c0,9.2,7.5,16.7,16.7,16.7s16.7-7.5,16.7-16.7V91.4c0-9.2-7.5-16.7-16.7-16.7
			C151.2,74.8,143.8,82.2,143.8,91.4z"/>
		<circle class="st0" cx="160.2" cy="204.3" r="16.5"/>
	</g>
</g>
</svg>
