<svg version="1" xmlns="http://www.w3.org/2000/svg" width="798.667" height="798.667" viewBox="0 0 599.000000 599.000000"><path d="M345.7 52.6c-.1.1-5.1.5-11.2.8L318 54.5c-3 .2-10.7.6-17 1-6.3.4-13.1.8-15 1-1.9.2-9.6.6-17 1-7.4.5-14.6.9-16 1-1.4.2-3.5.3-4.7.4-1.8.1-8.5 10.7-37.9 59.8-19.7 32.9-39 65.3-43 71.9-4 6.7-8.1 13.5-9.1 15.3-5.9 10.2-26.8 45-28.3 47.1-.9 1.4-2.7 4.3-3.9 6.5-1.2 2.2-3 5.3-4 7-10.2 16.7-13.1 21.6-13.1 22.1 0 .3-.5 1-1 1.7-.9.9-19.9 32.5-24.5 40.5-1.1 2-20.6 34.5-55.7 93.2-13 21.7-23.3 39.9-22.8 40.5.4.5 4 7.3 8 15s9.9 18.9 13 25c3.2 6 9.5 18.2 14 27 4.6 8.8 8.7 16.6 9.3 17.3 1 1.3 3.9 1.3 143.2-.3 20.9-.2 63.9-.7 95.5-1 31.6-.3 71.5-.8 88.5-1 17.1-.2 61.6-.7 99-1 37.4-.4 68.4-1 68.8-1.4.9-.9 15.9-23.9 26.2-40.1 3.7-5.8 10.6-16.6 15.4-24l8.8-13.5-4.5-7.5c-2.5-4.1-5.3-8.7-6.4-10.2-1-1.5-1.8-3-1.8-3.3 0-.4-14.4-25.1-22.2-38-3-4.9-21.4-36.1-24.8-42-.9-1.7-4.5-7.7-8-13.5s-7.2-12.1-8.3-14c-1.1-1.9-7.8-13.4-15-25.5-7.1-12.1-16.8-28.5-21.5-36.5-4.7-8-10.2-17.4-12.3-20.9-2.2-3.4-3.9-6.5-3.9-6.6 0-.2-3.6-6.3-8-13.6-4.4-7.2-8-13.3-8-13.5 0-.2-21.3-36.6-24.9-42.4-1.6-2.7-55.5-94-57.1-96.8-.9-1.5-2.8-4.6-4.3-6.9-1.5-2.4-2.7-4.4-2.7-4.6 0-.3-2.4-4.4-5.3-9.2-3.9-6.6-5.8-8.9-7.5-9-1.2-.1-2.3-.1-2.5.1zm-25.2 283.1c5.5 9.7 11.5 20.3 13.3 23.5 1.8 3.2 5.7 9.8 8.6 14.7 3 5 5.2 9.2 4.9 9.4-.2.3-7.9.3-17.1.1-9.2-.2-25.6-.6-36.5-.8-10.9-.2-20-.6-20.3-.9-.5-.5.2-1.9 15.4-28.7 14.5-25.6 14.1-24.8 16.9-30.2 1.4-2.6 3-4.8 3.7-4.8.6.1 5.6 8 11.1 17.7z"/></svg>